<svg xmlns="http://www.w3.org/2000/svg" width="64" height="64" fill="none" viewBox="0 0 64 64">
  <rect width="64" height="64" fill="#7264D6" rx="8"/>
  <rect width="40" height="40" x="12" y="12" fill="#F8FBFE" rx="4"/>
  <path fill="#7264D6" d="M44.974 40.539h-26.16a.814.814 0 0 0-.814.814 2.442 2.442 0 0 0 2.443 2.442h22.903a2.442 2.442 0 0 0 2.443-2.442.814.814 0 0 0-.815-.814ZM38.407 25.07v-.407a.815.815 0 0 0-.45-.728l-5.698-2.85a.815.815 0 0 0-.729 0l-5.698 2.85a.815.815 0 0 0-.45.729v.406c0 .45.364.815.814.815h11.397c.45 0 .814-.365.814-.815Zm-10.583 2.443h3.256v6.513h-3.256v-6.513Zm4.884 0h3.257v6.513h-3.257v-6.513Z"/>
  <path fill="#7264D6" d="M23.81 24.256h-3.367a.814.814 0 0 0-.815.814v13.84H44.16V25.07a.814.814 0 0 0-.814-.814H39.98c.023.135.057.267.057.407v.407a2.445 2.445 0 0 1-2.443 2.443v6.513h.814a.814.814 0 1 1 0 1.628H25.382a.814.814 0 1 1 0-1.628h.814v-6.513a2.445 2.445 0 0 1-2.443-2.443v-.407c0-.14.034-.272.057-.407Z"/>
</svg>
